<?xml version="1.0" encoding="utf-8"?>
<!-- Generator: Adobe Illustrator 17.0.0, SVG Export Plug-In . SVG Version: 6.00 Build 0)  -->
<!DOCTYPE svg PUBLIC "-//W3C//DTD SVG 1.1//EN" "http://www.w3.org/Graphics/SVG/1.1/DTD/svg11.dtd">
<svg xmlns="http://www.w3.org/2000/svg" xmlns:xlink="http://www.w3.org/1999/xlink" version="1.1" id="Layer_1" x="0px" y="0px" width="960px" height="560px" viewBox="0 0 960 560" xml:space="preserve">
<g>
	<rect x="354.653" y="25.784" fill-rule="evenodd" clip-rule="evenodd" fill="#EEEEEE" width="361.97" height="248.603"/>
	<g>
		<g>
			<rect x="354.65" y="39.373" fill="#F3F3F3" width="361.889" height="237.802"/>
			<path fill="#FFFFFF" d="M424.111,58.086c0.003-0.056,0.035-0.107,0.035-0.163V48.04c0-1.585-1.296-2.878-2.878-2.878h-44.596     c-1.584,0-2.878,1.293-2.878,2.878v9.884c0,0.056,0.028,0.107,0.031,0.163h-4.789v131.54h347.501V58.086H424.111z"/>
			<path fill="#FFFFFF" d="M716.18,57.727H423.751c0.004-0.056,0.033-0.107,0.033-0.163V47.68c0-1.585-1.296-2.878-2.878-2.878     h-44.593c-1.582,0-2.878,1.293-2.878,2.878v9.884c0,0.056,0.029,0.107,0.032,0.163h-4.789"/>
			<path fill="none" stroke="#CCCCCC" stroke-width="0.25" stroke-miterlimit="10" d="M716.18,57.727H423.751     c0.004-0.056,0.033-0.107,0.033-0.163V47.68c0-1.585-1.296-2.878-2.878-2.878h-44.593c-1.582,0-2.878,1.293-2.878,2.878v9.884     c0,0.056,0.029,0.107,0.032,0.163h-4.789"/>
			<line fill="#FFFFFF" x1="369.039" y1="72.961" x2="716.54" y2="72.961"/>
			
				<line fill="none" stroke="#CCCCCC" stroke-width="0.25" stroke-miterlimit="10" x1="369.039" y1="72.961" x2="716.54" y2="72.961"/>
			<rect x="379.663" y="50.392" fill="#666666" width="36.642" height="3.207"/>
			<rect x="354.285" y="186.982" fill="#C1C1C1" width="361.311" height="17.036"/>
			<line fill="#FFFFFF" x1="368.826" y1="57.941" x2="368.826" y2="187.721"/>
			
				<line fill="none" stroke="#CCCCCC" stroke-width="0.25" stroke-miterlimit="10" x1="368.826" y1="57.941" x2="368.826" y2="187.721"/>
			<path fill="#F3F3F3" d="M527.667,211.932h-63.31c-1.582,0-2.878-1.296-2.878-2.878v-17.266c0-1.585,1.296-2.878,2.878-2.878     h63.31c1.582,0,2.878,1.293,2.878,2.878v17.266C530.544,210.636,529.249,211.932,527.667,211.932"/>
			<path fill="#F3F3F3" d="M598.411,212.651h-63.31c-1.584,0-2.878-1.296-2.878-2.878v-17.266c0-1.585,1.294-2.878,2.878-2.878     h63.31c1.582,0,2.878,1.293,2.878,2.878v17.266C601.288,211.355,599.993,212.651,598.411,212.651"/>
			<path fill="#FFFFFF" d="M459.8,205.934v-13.43c0-1.582-1.294-2.878-2.878-2.878h-73.382c-1.582,0-2.878,1.296-2.878,2.878v13.43     h-23.502v67.146h356.623v-67.146H459.8z"/>
			<path fill="#FFFFFF" d="M373.469,196.343c0,2.647-2.146,4.797-4.797,4.797c-2.647,0-4.794-2.15-4.794-4.797     s2.147-4.797,4.794-4.797C371.323,191.546,373.469,193.696,373.469,196.343"/>
			<polygon fill="#666666" points="367.251,194.061 371.439,196.478 367.251,198.895    "/>
			<rect x="639.806" y="58.205" fill="#E8EDF7" width="75.779" height="128.738"/>
			<line fill="#FFFFFF" x1="639.503" y1="39.612" x2="639.503" y2="187.277"/>
			
				<line fill="none" stroke="#CCCCCC" stroke-width="0.25" stroke-miterlimit="10" x1="639.503" y1="39.612" x2="639.503" y2="187.277"/>
			<rect x="639.806" y="58.216" fill="#C3C7CF" width="74.82" height="15.347"/>
			<rect x="379.663" y="63.822" fill="#666666" width="36.642" height="3.207"/>
			<rect x="552.325" y="63.822" fill="#666666" width="36.642" height="3.207"/>
			<rect x="420.912" y="63.822" fill="#666666" width="67.293" height="3.207"/>
			<path fill="#CCCCCC" d="M533.662,69.243h-24.941c-1.584,0-2.878-1.293-2.878-2.878v-1.919c0-1.582,1.294-2.878,2.878-2.878     h24.941c1.582,0,2.878,1.296,2.878,2.878v1.919C536.54,67.951,535.245,69.243,533.662,69.243"/>
			<rect x="593.332" y="63.822" fill="#666666" width="36.642" height="3.207"/>
			<rect x="646.717" y="63.822" fill="#666666" width="36.642" height="3.207"/>
			<rect x="646.717" y="47.276" fill="#666666" width="36.642" height="3.207"/>
			<rect x="488.233" y="63.803" fill="#1E8CFF" width="4.527" height="3.206"/>
			<rect x="626.844" y="63.803" fill="#1E8CFF" width="4.527" height="3.206"/>
			<line fill="#FFFFFF" x1="544.392" y1="59.379" x2="544.392" y2="71.688"/>
			
				<line fill="none" stroke="#CCCCCC" stroke-width="0.25" stroke-miterlimit="10" x1="544.392" y1="59.379" x2="544.392" y2="71.688"/>
			<rect x="391.174" y="196.318" fill="#666666" width="54.634" height="3.207"/>
			<rect x="469.951" y="196.318" fill="#666666" width="38.343" height="3.207"/>
			<rect x="536.857" y="196.318" fill="#666666" width="38.343" height="3.207"/>
		</g>
		<g>
			<rect x="376.736" y="82.834" fill="#CEBADE" width="30.939" height="4.853"/>
			<rect x="388.869" y="91.327" fill="#CEBADE" width="18.806" height="4.853"/>
			<rect x="408.888" y="116.806" fill="#CEBADE" width="21.84" height="4.853"/>
			<rect x="412.528" y="91.327" fill="#B6B1EC" width="15.166" height="4.853"/>
			<rect x="428.908" y="82.834" fill="#B6B1EC" width="22.446" height="4.853"/>
			<rect x="412.528" y="99.82" fill="#B6B1EC" width="15.166" height="4.853"/>
			<rect x="396.755" y="99.82" fill="#B2B6D7" width="10.92" height="4.853"/>
			<rect x="396.755" y="108.313" fill="#B2B6D7" width="7.28" height="4.853"/>
			<rect x="412.528" y="82.834" fill="#CCCCCC" width="14.56" height="4.853"/>
			<rect x="452.568" y="82.834" fill="#CCCCCC" width="2.427" height="4.853"/>
			<rect x="459.848" y="82.834" fill="#CCCCCC" width="2.427" height="4.853"/>
			<rect x="408.888" y="91.327" fill="#CCCCCC" width="2.427" height="4.853"/>
			<rect x="428.908" y="91.327" fill="#CCCCCC" width="2.427" height="4.853"/>
			<rect x="433.155" y="99.82" fill="#CCCCCC" width="2.427" height="4.853"/>
			<rect x="405.248" y="108.313" fill="#CCCCCC" width="2.427" height="4.853"/>
			<rect x="444.681" y="108.313" fill="#CCCCCC" width="2.427" height="4.853"/>
			<rect x="451.961" y="108.313" fill="#CCCCCC" width="2.427" height="4.853"/>
			<rect x="396.755" y="126.513" fill="#CCCCCC" width="2.427" height="4.853"/>
			<rect x="452.568" y="99.82" fill="#CCCCCC" width="29.726" height="4.853"/>
			<rect x="401.002" y="134.399" fill="#CCCCCC" width="2.427" height="4.853"/>
			<rect x="388.869" y="143.499" fill="#CCCCCC" width="2.427" height="4.853"/>
			<rect x="376.736" y="151.992" fill="#CCCCCC" width="2.427" height="4.853"/>
			<rect x="424.055" y="134.399" fill="#CCCCCC" width="42.466" height="4.853"/>
			<rect x="404.642" y="219.938" fill="#CCCCCC" width="2.427" height="4.853"/>
			<rect x="404.642" y="228.431" fill="#CCCCCC" width="2.427" height="4.853"/>
			<rect x="420.415" y="236.318" fill="#CCCCCC" width="2.427" height="4.853"/>
			<rect x="408.888" y="245.418" fill="#CCCCCC" width="2.427" height="4.853"/>
			<rect x="406.462" y="253.911" fill="#CCCCCC" width="2.427" height="4.853"/>
			<rect x="376.736" y="228.431" fill="#95B1D8" width="21.84" height="4.853"/>
			<rect x="376.736" y="219.938" fill="#95B1D8" width="22.446" height="4.853"/>
			<rect x="376.736" y="236.318" fill="#95B1D8" width="38.219" height="4.853"/>
			<rect x="376.736" y="245.418" fill="#95B1D8" width="26.693" height="4.853"/>
			<rect x="376.736" y="253.911" fill="#95B1D8" width="26.086" height="4.853"/>
			<rect x="427.695" y="236.318" fill="#EDB0B3" width="19.413" height="4.853"/>
			<rect x="412.528" y="228.431" fill="#EDB0B3" width="53.992" height="4.853"/>
			<rect x="411.922" y="253.911" fill="#EDB0B3" width="48.533" height="4.853"/>
			<rect x="416.775" y="245.418" fill="#EDB0B3" width="100.705" height="4.853"/>
			<rect x="412.528" y="219.938" fill="#EDB0B3" width="148.631" height="4.853"/>
			<rect x="440.435" y="99.82" fill="#94DAD6" width="10.92" height="4.853"/>
			<rect x="408.888" y="108.313" fill="#94DAD6" width="34.579" height="4.853"/>
			<rect x="404.642" y="134.399" fill="#94DAD6" width="17.593" height="4.853"/>
		</g>
	</g>
	<rect x="535.638" y="25.784" opacity="0.05" fill-rule="evenodd" clip-rule="evenodd" width="180.984" height="248.603"/>
	<g>
		<rect x="346.481" y="23.301" fill-rule="evenodd" clip-rule="evenodd" fill="#BFBFBF" width="378.315" height="16.569"/>
		<rect x="535.638" y="23.301" fill-rule="evenodd" clip-rule="evenodd" fill="#B2B2B2" width="189.157" height="16.569"/>
	</g>
	<g>
		<rect x="346.481" y="272.691" fill-rule="evenodd" clip-rule="evenodd" fill="#BFBFBF" width="378.315" height="16.569"/>
		<rect x="535.638" y="272.691" fill-rule="evenodd" clip-rule="evenodd" fill="#B2B2B2" width="189.157" height="16.569"/>
	</g>
</g>
<g>
	<g>
		<g>
			<path fill-rule="evenodd" clip-rule="evenodd" fill="#F0C17D" d="M338.797,92.892c1.007,3.14,5.469,7.134,10.208,9.159     c17.394,7.44,20.693,6.892,26.228,25.921c-7.517,9.386-12.567,16.883-22.896,21.815h-57.862     c-9.463-4.521-11.652-11.985-18.797-20.295c0.446-32.889,24.987-12.984,32.26-36.452c1.367-4.412,1.428-11.33,0.56-15.893     l15.04,0.342l15.044-0.342C337.713,81.711,337.385,88.5,338.797,92.892z"/>
			<path fill-rule="evenodd" clip-rule="evenodd" fill="#E0AF6A" d="M338.646,92.595c0.811,2.527,4.075,6.055,7.731,7.924     c18.027,9.22,24.559,9.665,26.48,28.444c-7.517,9.384-10.19,15.892-20.52,20.824h-28.954V77.486l0.155,0.004l15.044-0.342     C337.713,81.711,337.236,88.203,338.646,92.595z"/>
		</g>
		<g>
			<path fill-rule="evenodd" clip-rule="evenodd" fill="#FFDBA7" d="M323.755,87.858c-0.081,0.007-0.162,0.007-0.241,0.007     c-2.989,0.02-4.473-0.03-6.095-0.714c-1.568-0.667-2.329-2.207-4.487-4.286c-1.836-1.766-5.129-3.568-5.931-5.492     c-0.975-2.343-0.745-4.894-1.16-8.303c-1.705,0.937-3.525-3.937-3.888-5.537c-0.534-2.356-2.232-6.367-2.761-9.059     c-0.304-1.541-0.119-2.768,0.399-3.154c1.135-0.845,2.304-0.349,4.023,2.05c-0.104-3.404-0.149-6.273,0.281-8.746     c2.352-13.481,35.298-21.038,38.988-0.063c0.435,2.473,0.397,5.352,0.302,8.764c1.7-2.361,2.861-2.845,3.989-2.005     c0.52,0.385,0.703,1.613,0.399,3.154c-0.529,2.692-2.228,6.703-2.761,9.059c-0.358,1.581-2.142,6.361-3.829,5.564     c-0.374,3.304-0.169,5.789-1.117,8.098c-0.799,1.932-4.07,3.757-5.892,5.541c-2.149,2.106-2.903,3.647-4.462,4.339     C327.949,87.752,326.516,87.847,323.755,87.858z"/>
			<path fill-rule="evenodd" clip-rule="evenodd" fill="#F0C17D" d="M323.755,87.858c-0.081,0.007-0.162,0.007-0.241,0.007h-0.131     V31.627c8.83-0.779,17.689,2.64,19.5,12.934c0.435,2.473,0.397,5.352,0.302,8.764c1.7-2.361,2.861-2.845,3.989-2.005     c0.52,0.385,0.703,1.613,0.399,3.154c-0.529,2.692-2.228,6.703-2.761,9.059c-0.358,1.581-2.142,6.361-3.829,5.564     c-0.374,3.304-0.169,5.789-1.117,8.098c-0.799,1.932-4.07,3.757-5.892,5.541c-2.149,2.106-2.903,3.647-4.462,4.339     C327.949,87.752,326.516,87.847,323.755,87.858z"/>
		</g>
	</g>
	<g>
		<g>
			<polygon fill-rule="evenodd" clip-rule="evenodd" fill="#662505" points="355.521,445.587 333.785,445.587 330.886,462.395      362.115,462.183    "/>
			<polygon fill-rule="evenodd" clip-rule="evenodd" fill="#6B4C40" points="362.689,462.395 352.958,454.971 337.251,454.971      331.276,462.395    "/>
		</g>
		<g>
			<polygon fill-rule="evenodd" clip-rule="evenodd" fill="#6B4C40" points="291.449,445.587 313.186,445.587 316.45,462.395      285.217,462.183    "/>
			<polygon fill-rule="evenodd" clip-rule="evenodd" fill="#9B3B0B" points="284.647,462.395 294.218,454.971 309.927,454.971      316.062,462.395    "/>
		</g>
		<polygon fill-rule="evenodd" clip-rule="evenodd" fill="#002677" points="322.007,267.94 317.218,346.412 314.065,446.578     291.062,446.344 288.697,374.003 290.249,348.039 283.996,257.063 285.791,206.456 353.787,203.429 354.936,348.271     357.173,372.449 334.481,345.48 323.687,267.94   "/>
		<polygon fill-rule="evenodd" clip-rule="evenodd" fill="#00215B" points="318.295,328.775 317.218,346.412 314.065,446.576     304.721,446.483 304.435,403.222 303.036,353.348 311.891,345.423   "/>
		<polygon fill-rule="evenodd" clip-rule="evenodd" fill="#00215B" points="322.842,203.429 353.787,203.429 361.727,237.018     361.191,264.16 357.267,348.271 358.571,371.75 355.621,445.646 333.785,446.344 330.287,346.646 323.687,267.94 322.842,267.94       "/>
		<polygon fill-rule="evenodd" clip-rule="evenodd" fill="#001C44" points="335.274,203.429 353.787,203.429 361.725,237.018     361.191,264.16 357.267,348.271 358.571,371.75 355.621,445.646 347.043,445.92 345.917,377.584 343.119,359.405 350.111,348.453     353.724,306.036 355.472,261.638 349.879,251.15 343.471,239.613   "/>
	</g>
	<polygon fill-rule="evenodd" clip-rule="evenodd" fill="#EEEEEE" points="305.649,93.338 323.437,95.244 341.448,93.221    339.783,212.195 307.496,212.195  "/>
	<g>
		<path fill-rule="evenodd" clip-rule="evenodd" fill="#F9F9F9" d="M337.99,86.878c0.444,3.118,1.392,4.545,3.464,6.12    l-8.891,15.184l-9.413-13.164C327.832,92.442,336.168,89.23,337.99,86.878z"/>
		<path fill-rule="evenodd" clip-rule="evenodd" fill="#F9F9F9" d="M308.717,86.878c-0.441,3.118-1.39,4.545-3.464,6.12    l8.891,15.184l9.413-13.164C318.878,92.442,310.539,89.23,308.717,86.878z"/>
	</g>
	<path fill-rule="evenodd" clip-rule="evenodd" fill="#026499" d="M305.651,93.018c-1.955,1.649-5.431,3.37-9.104,4.674l0.187,0.137   l-0.464,19.403l8.316-0.926l-4.852,6.467l7.332,26.6h11.096C314.262,134.726,309.046,103.083,305.651,93.018z"/>
	<path fill-rule="evenodd" clip-rule="evenodd" fill="#00358E" d="M282.471,254.763l40.887,2.065l2.656-22.836l35.001-1.284   l-5.219-40.633c2.333-24.788,20.225-73.269,15.508-81.452c-4.552-7.893-13.724-8.817-21.426-10.652   c-4.23-1.007-4.02,36.01-6.992,33.542l-0.137-0.117l-16.456,37.258l-2.656,0.946l-0.28-1.642l-19.484-58.903l-4.005-13.443   c-18.463,8.17-35.821,11.434-24.615,43.566c4.91,14.08,4.023,12.859,6.07,27.757l1.768,12.882l2.295,24.766L282.471,254.763z"/>
	<path fill-rule="evenodd" clip-rule="evenodd" fill="#002677" d="M364.248,254.765l-40.89,2.063v-86.869l19.486-58.903   l4.003-13.443c19.101,4.383,33.918,12.772,26.971,35.155c-5.429,17.495-7.746,31.227-10.193,49.051l-2.297,24.766L364.248,254.765z   "/>
	<polygon fill-rule="evenodd" clip-rule="evenodd" fill="#004DA7" points="322.941,95.65 318.324,102.463 318.439,104.193    322.248,108.063 317.977,114.935 323.315,170.234 323.358,169.495 324.192,119.616 323.358,95.636  "/>
	<polygon fill-rule="evenodd" clip-rule="evenodd" fill="#002677" points="323.777,95.65 328.397,102.463 328.282,104.193    324.471,108.063 328.742,114.935 323.403,170.234 323.358,169.495 323.358,95.636  "/>
	<path fill-rule="evenodd" clip-rule="evenodd" fill="#00358E" d="M341.056,93.018c1.953,1.651,5.431,3.37,9.105,4.674l-0.185,0.14   l0.462,19.401l-8.314-0.926l5.848,10.79l-24.404,43.387l5.001-21.11C332.445,134.8,337.635,103.159,341.056,93.018z"/>
	<path fill-rule="evenodd" clip-rule="evenodd" fill="#002677" d="M360.49,111.151h6.116c5.766,0,8.683,5.672,10.481,12.037   l13.252,46.953c6.903,24.462-8.111,30.631-16.308,25.287c-3.586-2.338-5.866-7.381-7.07-12.677l-18.955-59.562   C346.538,116.733,354.726,111.151,360.49,111.151z"/>
	<path fill-rule="evenodd" clip-rule="evenodd" fill="#00358E" d="M288.995,110.745l-5.93-1.495   c-5.589-1.409-9.806,3.376-13.101,9.107l-24.329,42.292c-12.674,22.032,0.378,31.685,9.633,28.505   c4.048-1.391,7.491-5.722,9.955-10.564l32.939-53.126C301.162,119.566,294.584,112.154,288.995,110.745z"/>
	<g>
		<polygon fill-rule="evenodd" clip-rule="evenodd" fill="#F0C17D" points="415.546,126.215 430.212,123.657 443.01,104.849     440.882,101.389 426.966,114.113 413.706,111.638 406.421,118.476 400.395,125.689 410.25,128.297   "/>
		<polygon fill-rule="evenodd" clip-rule="evenodd" fill="#EEEEEE" points="398.537,125.439 400.544,121.72 418.551,125.939     416.548,128.488   "/>
		<path fill-rule="evenodd" clip-rule="evenodd" fill="#002677" d="M397.386,123.995l-28.066,57.756    c-5.465,11.244,15.445,20.471,22.73,5.014l27.433-58.206L397.386,123.995z"/>
	</g>
	<g>
		<polygon fill-rule="evenodd" clip-rule="evenodd" fill="#FFDBA7" points="274.845,246.985 272.562,261.698 286.265,279.852     290.227,278.947 282.64,261.686 289.24,249.921 285.1,240.827 280.205,232.807 274.573,241.301   "/>
		<polygon fill-rule="evenodd" clip-rule="evenodd" fill="#EEEEEE" points="270.493,239.668 272.498,243.387 290.507,239.166     288.502,236.618   "/>
		<path fill-rule="evenodd" clip-rule="evenodd" fill="#00358E" d="M269.342,241.112l-28.066-57.756    c-5.464-11.244,15.443-20.471,22.728-5.014l27.433,58.207L269.342,241.112z"/>
	</g>
	<path fill-rule="evenodd" clip-rule="evenodd" fill="#935F48" d="M309.069,41.15c-2.793,3.343-3.467,16.391-3.271,20.917   c-4.723-17.135-7.26-29.37,2.991-37.074c13.456-10.114,28.571-3.857,31.021,0.268c9.889,5.462,6.451,20.831,3.48,34.407   c-0.07-5.224-2.552-17.709-4.489-22.987C331.271,31.949,316.324,45.993,309.069,41.15z"/>
	<path fill-rule="evenodd" clip-rule="evenodd" fill="#6B4C40" d="M324.025,19.542c7.859-0.223,14.265,3.158,15.785,5.719   c9.889,5.462,6.451,20.831,3.48,34.407c-0.07-5.224-2.552-17.709-4.489-22.987c-3.721-2.34-9.256-0.092-14.776,2.196V19.542z"/>
	<path fill-rule="evenodd" clip-rule="evenodd" fill="#1C1C1C" d="M325.775,58.49c0.764,1.408,1.721,4.133,2.609,5.131   c0.924,1.036,2.953,1.396,5.791,1.34c2.714-0.052,5.841-0.671,7.046-1.955c1.162-1.237,1.669-3.289,2.662-5.825l0.823-0.399   c0.205-1.074,0.286-1.849,0.351-2.939c-0.225-0.142-0.998-0.545-1.955-0.762c-2.464-0.561-6.46-0.268-7.753-0.176   c-2.759,0.196-6.066,0.861-8.992,1.951c-1.468,0.547-3.198,0.547-4.665,0c-2.924-1.09-6.233-1.755-8.992-1.951   c-1.291-0.092-5.289-0.385-7.756,0.176c-0.955,0.216-1.728,0.62-1.953,0.762c0.067,1.09,0.149,1.865,0.353,2.939l0.823,0.399   c0.991,2.536,1.498,4.588,2.66,5.825c1.205,1.284,4.332,1.903,7.048,1.955c2.838,0.056,4.865-0.304,5.789-1.34   c0.888-0.998,1.845-3.723,2.609-5.131C322.998,57.154,325.05,57.154,325.775,58.49L325.775,58.49z M327.32,58.805   c-0.723-1.993-0.773-2.843,0.115-3.232c2.415-1.055,5.404-1.482,7.733-1.647c1.178-0.083,6.766-0.252,7.476,0.563   c0.421,0.482-0.538,3.644-0.831,4.455c-0.523,1.449-0.948,2.629-1.687,3.415c-1.018,1.085-3.658,1.606-5.951,1.651   c-2.395,0.047-4.107-0.257-4.886-1.131C328.539,62.038,327.782,60.078,327.32,58.805L327.32,58.805z M320.727,58.805   c-0.462,1.273-1.218,3.232-1.967,4.075c-0.781,0.874-2.491,1.178-4.888,1.131c-2.293-0.045-4.933-0.566-5.951-1.651   c-0.739-0.787-1.164-1.967-1.687-3.415c-0.293-0.811-1.252-3.973-0.831-4.455c0.712-0.816,6.298-0.646,7.476-0.563   c2.331,0.165,5.318,0.592,7.733,1.647C321.502,55.963,321.45,56.812,320.727,58.805z"/>
	<path fill-rule="evenodd" clip-rule="evenodd" fill="#004DA7" d="M305.663,93.018c-1.955,1.651-5.431,3.37-9.104,4.674l0.185,0.14   l-0.462,19.401l8.314-0.926l-5.847,10.79l24.403,43.387l-5.001-21.11C314.274,134.8,309.084,103.159,305.663,93.018z"/>
</g>
<g>
	<g>
		<g>
			<g>
				<g>
					<g>
						<rect x="165.627" y="458.641" fill-rule="evenodd" clip-rule="evenodd" fill="#C1C1C1" width="9.622" height="82.996"/>
						<rect x="244.672" y="458.641" fill-rule="evenodd" clip-rule="evenodd" fill="#C1C1C1" width="9.622" height="82.996"/>
					</g>
					<path fill-rule="evenodd" clip-rule="evenodd" fill="#14BAC6" d="M170.168,418.569h79.585c10.636,0,19.34,8.713,19.34,19.34       v10.636c0,10.627-8.717,19.339-19.34,19.339h-79.585c-10.623,0-19.34-8.699-19.34-19.339v-10.636       C150.828,427.268,159.532,418.569,170.168,418.569z"/>
					<path fill-rule="evenodd" clip-rule="evenodd" fill="#D3D3D3" d="M207.497,418.569h42.256c10.636,0,19.34,8.713,19.34,19.34       v10.636c0,10.627-8.717,19.339-19.34,19.339h-42.256V418.569z"/>
					<path fill-rule="evenodd" clip-rule="evenodd" fill="#C1C1C1" d="M152.018,257.94c-6.87,1.013-13.497,5.739-12.627,12.632       l17.042,135.303c0.87,6.888,5.69,12.627,12.632,12.627h19.935l-17.727-139.213C168.587,262.814,162.861,256.345,152.018,257.94       z"/>
				</g>
				<path fill-rule="evenodd" clip-rule="evenodd" fill="#139EAB" d="M232.44,403.676l-42.914,6.253      c-6.208-23.228-4.658-33.193,1.149-49.618l1.753-12.866l48.532,0.942l-3.825,39.748L232.44,403.676z"/>
				<path fill-rule="evenodd" clip-rule="evenodd" fill="#5C697C" d="M185.746,379.272l47.284-1.284l68.467,1.982      c15.7,4.911,6.645,29.413-13.596,32.706l-52.591,7.118C196.171,420.204,179.584,430.354,185.746,379.272z"/>
				<path fill-rule="evenodd" clip-rule="evenodd" fill="#FFDBA7" d="M192.107,217.629c1.726,10.375,1.234,17.146-1.261,23.894      c-6.059,16.403-10.204,24.277-11.267,32.967c-0.477,3.901,5.965,20.561,8.884,33.517h50.411l-6.51-37.675      c-2.838-3.662-13.641-17.529-13.717-17.876c-0.757-3.365,0.698-3.032,1.04-8.865c0.194-3.28-1.153-4.843,0.023-6.717      c1.717-2.739,7.834-1.982,11.866-2.789l-29.972-29.12L192.107,217.629z"/>
				<path fill-rule="evenodd" clip-rule="evenodd" fill="#88BDE9" d="M190.846,241.523c-6.059,16.403-11.001,23.642-12.064,32.332      c-0.478,3.901,6.762,21.196,9.681,34.152h53.375l4.041-24.669c-4.054-8.956-26.485-30.584-27.232-30.882L190.846,241.523z"/>
				<path fill-rule="evenodd" clip-rule="evenodd" fill="#F0C17D" d="M218.979,248.182c0.275-0.987,0.577-2.32,0.707-4.59      c0.194-3.28-1.153-4.839,0.023-6.717c1.717-2.739,7.834-1.982,11.866-2.789l-29.972-29.12l-2.468,3.289      C201.036,222.665,209.988,237.992,218.979,248.182z"/>
				<path fill-rule="evenodd" clip-rule="evenodd" fill="#FFDBA7" d="M234.684,216.755c-0.09,1.442,0.167,2.23,1.559,3.054      c0.275,0.968-0.23,2.158-1.243,2.626c0.991,0.613,1.585,1.824,1.018,3.225c-0.888,0.311-1.248,0.721-1.293,1.189      c-0.144,1.442,2.743,3.942,1.018,6.605c-2.081,3.203-15.997-1.46-22.471-3.604c-5.366-1.775-4.18-5.455-4.37-10.947      c-2.816,0.766-5.14,0.212-5.884-4.244c-4.456-4.762-6.307-8.871-9.497-14.528c0,0,6.104-25.111,6.672-25.336      c0.563-0.226,19.452-0.338,19.452-0.338c2.721,3.271,6.816,6.077,9.722,9.925c4.027,5.334,3.951,10.717,5.091,13.371      c0.964,2.257,0.77,3.419,0.414,4.654c-0.162,0.572-0.486,1.284-0.41,1.856c0.603,4.563,5.568,7.951,5.496,9.248      C239.901,214.579,238.026,216.665,234.684,216.755z"/>
				<path fill-rule="evenodd" clip-rule="evenodd" fill="#D1A059" d="M214.682,200.74c0.081,3.212,1.288,4.708,0.095,9.483      l-2.487-0.676c-2.387-2.388-8.136-7.884-11.668-6.244c-2.73,1.27-1.009,6.338,1.446,9.766c1.311,1.834,1.55,3.865,1.167,5.222      c-0.847,2.991-3.676,1.838-6.185,4.897c-2.045,2.496-2.964,6.276-3.874,7.956c-2.451-7.172-3.289-9.663-6.474-13.934      c-5.276-7.073-8.33-23.827-1.216-29.607c0.698-1.626,1.46-3.104,2.284-4.433c8.014-12.943,29.156-15.727,39.319-4.69      c2.946,3.199,5.312,7.487,7.83,12.713C229.521,193.347,214.218,181.684,214.682,200.74z"/>
				<path fill-rule="evenodd" clip-rule="evenodd" fill="#14BAC6" d="M192.549,233.518c-1.157,4.617-1.675,7.41-3.505,11.717      c10.118,2.401,26.804,10.902,33.494,10.902c-1.968-2.334-3.072-4.307-3.451-7.929      C209.704,244.271,201.415,238.51,192.549,233.518z"/>
				<path fill-rule="evenodd" clip-rule="evenodd" fill="#7E8591" d="M189.319,245.353c-5.05,13.546-13.078,16.957-12.416,33.85      c0.572,14.321,6.33,33.242,8.848,45.099c5.667,26.678,2.743,42.365-1.991,69.359l55.569-3.027      c0.91-12.443,8.996-102.533,7.618-105.552C231.841,264.418,212.1,261.044,189.319,245.353z"/>
				<path fill-rule="evenodd" clip-rule="evenodd" fill="#8996A3" d="M189.319,245.353c-1.185,2.753-2.405,5.149-3.608,7.285      c4.519,4.838,18.349,9.019,25.345,13.227l3.505-5.091l2.487,9.05c7.609,3.189,22.854,8.406,30.886,17.425      c-0.257-0.937-0.581-1.829-0.987-2.721C231.165,262.877,209.208,252.015,189.319,245.353z"/>
				<path fill-rule="evenodd" clip-rule="evenodd" fill="#8996A3" d="M181.224,285.654c2.144,12.055,8.1,35.341,10.663,47.883      l1.46,8.132c4.388,13.389,24.016,8.893,22.259-6.6c-0.64-10.204-2.117-30.863-2.933-35.341      c0.586-21.07-5.343-36.878-19.624-35.233C185.273,265.386,178.818,272.094,181.224,285.654z"/>
				<polygon fill-rule="evenodd" clip-rule="evenodd" fill="#6B6B6B" points="306.155,498.407 280.418,497.74 280.418,524.869       332.37,524.869 332.37,514.377     "/>
				<path fill-rule="evenodd" clip-rule="evenodd" fill="#5C697C" d="M313.652,399.46l-3.451,101.691l-33.841,6.51l0.239-80.589      l3.162-30.517C271.543,366.222,320.26,347.751,313.652,399.46z"/>
			</g>
			<g>
				<polygon fill-rule="evenodd" clip-rule="evenodd" fill="#F0C17D" points="305.84,315.585 323.981,296.984 316.949,284.816       306.452,287.492 304.196,285.722 291.775,291.241 284.748,303.417 291.78,315.59     "/>
				<polygon fill-rule="evenodd" clip-rule="evenodd" fill="#88BDE9" points="283.482,300.363 287.581,297.602 293.722,316.031       288.734,318.437     "/>
				<path fill-rule="evenodd" clip-rule="evenodd" fill="#3F5375" d="M243.991,329.785l41.311-32.139l5.775,20.664l-43.865,42.955      c-2.004,1.784-4.072,3.036-6.104,3.825C242.036,354.044,243.081,341.471,243.991,329.785z"/>
				<path fill-rule="evenodd" clip-rule="evenodd" fill="#FFDBA7" d="M283.369,344.305l14.903-2.347      c1.699-0.257,2.739-1.802,2.505-3.536l-2.37-16.736c-0.234-1.735-4.068-2.505-5.726-2.081l-12.569,1.968      c-1.658,0.423-2.739,1.902-3.618,3.37l-12.857,3.415c1.545,4.023,3.171,10.438,4.717,14.461l10.956-0.653      C280.612,343.886,282.675,344.412,283.369,344.305z"/>
				<path fill-rule="evenodd" clip-rule="evenodd" fill="#FFDBA7" d="M298.763,336.308l-8.996,0.68      c-2.293,0.172-4.172,2.663-3.879,4.645l0,0c0.288,1.982,6.735,0.671,9.032,0.509l4.694-0.329      C304.182,341.493,305.016,335.835,298.763,336.308z"/>
				<path fill-rule="evenodd" clip-rule="evenodd" fill="#FFDBA7" d="M299.29,330.479l-8.596,0.667      c-2.194,0.172-3.978,2.753-3.694,4.811l0,0c0.288,2.059,6.447,0.725,8.641,0.568l4.491-0.32      C304.497,335.893,305.268,330.015,299.29,330.479z"/>
				<path fill-rule="evenodd" clip-rule="evenodd" fill="#FFDBA7" d="M299.146,324.726l-7.42,0.608      c-1.892,0.153-3.1,2.689-2.577,4.721l0,0c0.527,2.027,5.73,0.752,7.627,0.613l3.879-0.292      C304.425,330.096,304.308,324.307,299.146,324.726z"/>
				<path fill-rule="evenodd" clip-rule="evenodd" fill="#FFDBA7" d="M299.263,319.275l-6.203,0.266      c-1.581,0.068-2.64,2.356-2.235,4.248l0,0c0.401,1.897,4.762,0.928,6.352,0.87l3.239-0.113      C303.565,324.437,303.574,319.094,299.263,319.275z"/>
				<polygon fill-rule="evenodd" clip-rule="evenodd" fill="#14BAC6" points="261.822,348.503 257.637,329.028 275.945,324.199       280.13,343.669     "/>
				<path fill-rule="evenodd" clip-rule="evenodd" fill="#8996A3" d="M212.69,357.513c6.519-0.419,6.582-0.428,11.389-1.532      l51.622-9.794l-2.104-22.39l-64.728,9.059C190.103,336.443,192.603,358.581,212.69,357.513z"/>
			</g>
		</g>
		<g>
			<path fill-rule="evenodd" clip-rule="evenodd" fill="#C1C1C1" d="M255.028,316.707h81.824c2.928,0,5.325,2.396,5.325,5.32l0,0     c0,2.928-2.397,5.325-5.325,5.325h-81.824c-2.928,0-5.32-2.397-5.32-5.325l0,0C249.708,319.104,252.1,316.707,255.028,316.707z"/>
			<path fill-rule="evenodd" clip-rule="evenodd" fill="#06929C" d="M342.177,322.027c0,2.928-2.397,5.325-5.325,5.325h-81.824     c-2.928,0-5.32-2.397-5.32-5.325H342.177z"/>
		</g>
		<g>
			<path fill-rule="evenodd" clip-rule="evenodd" fill="#D3D3D3" d="M332.996,319.712l-11.924-67.485     c-0.513-2.883,1.383-5.667,4.262-6.203l0,0c2.879-0.531,5.694,1.383,6.203,4.266l11.925,67.48     c0.509,2.883-1.388,5.672-4.262,6.204l0,0C336.321,324.51,333.505,322.595,332.996,319.712z"/>
			<path fill-rule="evenodd" clip-rule="evenodd" fill="#C1C1C1" d="M325.333,246.024c2.879-0.531,5.694,1.388,6.203,4.266     l11.925,67.48c0.509,2.883-1.388,5.672-4.262,6.204L325.333,246.024z"/>
		</g>
		<g>
			<path fill-rule="evenodd" clip-rule="evenodd" fill="#722E39" d="M189.693,297.295l27.593,26.525     c8.47,7.789-1.32,21.344-9.564,14.925l-33.188-28.498c-6.442-6.055-9.807-13.087-4.442-17.11     C178.002,287.208,186.625,293.84,189.693,297.295z"/>
			<g>
				<polygon fill-rule="evenodd" clip-rule="evenodd" fill="#FFDBA7" points="285.058,324.613 301.578,315.036 297.407,307.755       288.78,308.711 287.194,306.931 276.72,309.558 269.746,316.576 272.282,324.676     "/>
				<path fill-rule="evenodd" clip-rule="evenodd" fill="#722E39" d="M216.646,322.667l55.681-9.443l3.239,12.046l-54.474,14.186      C202.676,345.12,198.667,329.461,216.646,322.667z"/>
			</g>
		</g>
		<path fill-rule="evenodd" clip-rule="evenodd" fill="#FFDBA7" d="M221.849,232.478c0.752,6.987-2.081,8.847-1.829,12.47    c0.239,3.419,1.987,6.749,3.699,8.848c-0.077,2.919-3.415,2.811-4.212,4.226c-0.302,0.536-0.919,1.743-0.798,3.176l0.78,0.896    c-0.788,2.694-2.217,2.199-5.185,1.464c1.509,1.095,4.176,2.365,2.113,4.23c-1.005,0.775-1.635,0.982-1.766,1.424    c-0.244,0.82-0.46,3.563-2.239,5.262c-1.388,1.324-3.793,0.464-6.69-1.145c-6.316-3.509-14.465,12.412-9.668,25.197    l-24.147-12.853c5.167-4.847,13.078-22.723,12.47-24.255c-0.19-0.477-22.237-30.147-2.798-45.437    c7.055-5.55,22.57-2.699,31.481,2.685C218.353,221.864,221.255,226.968,221.849,232.478z"/>
		<path fill-rule="evenodd" clip-rule="evenodd" fill="#9B4E59" d="M203.127,337.308c10.816-2.707,11.925-12.686,5.947-20.678    c-3.685-4.924-8.965-14.186-13.308-20.556l-22.088-12.456c-7.109,6.654-13.173,25.372-9.798,36.567    c6.316,20.966,14.524,27.368,2.468,48.757l30.35,5.145C201.108,359.644,201.572,342.412,203.127,337.308z"/>
		<g>
			<g>
				<rect x="245.149" y="337.507" fill-rule="evenodd" clip-rule="evenodd" fill="#E5E5E5" width="151.831" height="125.828"/>
				<rect x="321.067" y="337.507" fill-rule="evenodd" clip-rule="evenodd" fill="#D3D3D3" width="75.914" height="125.833"/>
			</g>
			<g>
				<g>
					<rect x="387.957" y="348.629" fill-rule="evenodd" clip-rule="evenodd" fill="#E5E5E5" width="10.798" height="189.105"/>
					<rect x="393.385" y="348.629" fill-rule="evenodd" clip-rule="evenodd" fill="#C1C1C1" width="5.37" height="189.105"/>
				</g>
				<g>
					<rect x="243.379" y="348.629" fill-rule="evenodd" clip-rule="evenodd" fill="#E5E5E5" width="10.794" height="189.105"/>
					<rect x="248.803" y="348.629" fill-rule="evenodd" clip-rule="evenodd" fill="#C1C1C1" width="5.37" height="189.105"/>
				</g>
			</g>
			<g>
				<rect x="206.762" y="331.254" fill-rule="evenodd" clip-rule="evenodd" fill="#D3D3D3" width="228.605" height="33.35"/>
				<rect x="321.067" y="331.254" fill-rule="evenodd" clip-rule="evenodd" fill="#C1C1C1" width="114.301" height="33.35"/>
			</g>
		</g>
		<path fill-rule="evenodd" clip-rule="evenodd" fill="#FFDBA7" d="M267.809,426.57l10.537-7.325    c2.716-10.65-3.956-12.317-24.435-19.682c-24.471-8.798-39.396-11.073-56.42-14.087c-1.085-2.261-0.378-4.757-0.991-6.784    c-9.068,3.518-21.71-2.023-33.49,1.635c-0.775,21.245-19.209,42.833,41.185,40.459c12.839-0.505,20.921,2.825,37.671,2.068    C251.465,422.421,262.146,424.903,267.809,426.57z"/>
		<path fill-rule="evenodd" clip-rule="evenodd" fill="#F0C17D" d="M204.78,272.31c-10.023-6.361-18.173-9.091-18.93-19.421    c-0.969,3.595-5.397,2.753-5.942,4.888c-0.352,1.356,4.996,2.361,4.568,3.595c-0.968,2.78-3.054,9.74-6.095,14.898    c9.199-1.126,10.794-1.617,19.894,0.171C201.162,273.54,202.257,273.031,204.78,272.31z"/>
		<path fill-rule="evenodd" clip-rule="evenodd" fill="#9B3B0B" d="M219.872,225.788c-0.892-7.005-26.138-23.606-41.914-8.717    c-17.133,16.173-11.087,37.387,6.784,44.05l2.099-7.983c2.816-12.046,3.474-17.619,6.861-8.406    C200.689,237.581,210.497,228.995,219.872,225.788z"/>
		<path fill-rule="evenodd" clip-rule="evenodd" fill="#FFDBA7" d="M192.468,236.037c-2.721-6.073-7.6,0.419-8.411,3.514    c-1.099,4.185,2.469,6.951,2.798,8.969c0.518,3.194-2.325,4.753-0.577,6.78c0.441,0.514,1.536,0.455,2.343-0.392    C192.652,250.691,195.054,241.807,192.468,236.037z"/>
		<path fill-rule="evenodd" clip-rule="evenodd" fill="#9B4E59" d="M199.906,331.321c10.005-4.915,8.996-14.907,1.473-21.466    c-4.64-4.041-11.542-9.992-17.123-15.312l-6.807,1.468c-8.064,7.402-5.257,29.805,0.387,40.04    c10.578,19.173-2.415,8.51-11.447,32.328c0.153,0.072-15.096,19.984-14.632,29.372c0.139,7.812,4.208,20.867,16.691,22.196    c9.564,1.018,25.926,0.829,35.666,1.257c0.662-6.307,11.38-29.688,11.595-31.963c-5.05-3.275-13.465-0.937-18.578-4.104    C201.027,374.321,199.315,338.29,199.906,331.321z"/>
		<path fill-rule="evenodd" clip-rule="evenodd" fill="#B75361" d="M186.81,301.948l27.593,26.525    c8.47,7.794-1.32,21.349-9.564,14.93l-33.188-28.499c-6.442-6.055-9.803-13.087-4.442-17.11    C175.119,291.862,183.742,298.498,186.81,301.948z"/>
		<g>
			<path fill-rule="evenodd" clip-rule="evenodd" fill="#FFDBA7" d="M279.08,418.722c0.185-9.388-4.176-16.515-15.97-3.307     c-22.813,26.255-3.843,63.917-9.285,89.329c-1.5,6.199-9.492,6.861-5.793,14.303c1.514,3.04-0.365,2.068,9.285,4.658     c4.162,5.541,4.973,13.141,8.208,14.934c6.136,3.406,19.344,2,24.917,1.991c-0.045-5.465-9.546-4.154-15.947-13.353     c-3.672-5.28-5.311-14.051-6.415-22.201C265.079,483.044,276.197,434.602,279.08,418.722z"/>
			<path fill-rule="evenodd" clip-rule="evenodd" fill="#7C342E" d="M251.641,508.695c-3.23,2.099-5.244,4.469-5.086,7.379     c0.041,0.793,0.135,1.951,0.531,2.978c1.55,3.992,2.712,8.384,3.158,12.664l0.288,8.397l1.703-0.059l-0.189-8.51     c0.194-1.956-0.685-8.866-0.252-8.771c10.474,2.383,7.695,12.515,13.731,15.866c6.136,3.406,19.34,2,24.917,1.991     c-0.022-3-2.905-3.96-6.564-5.74c-13.456,0.117-17.605-1.779-21.71-9.528C258.727,518.854,250.316,514.336,251.641,508.695z"/>
		</g>
		<g>
			<g>
				<rect x="132.178" y="458.947" fill-rule="evenodd" clip-rule="evenodd" fill="#D3D3D3" width="9.587" height="82.689"/>
				<rect x="210.929" y="458.947" fill-rule="evenodd" clip-rule="evenodd" fill="#C1C1C1" width="9.586" height="82.689"/>
			</g>
			<path fill-rule="evenodd" clip-rule="evenodd" fill="#D3D3D3" d="M136.705,419.024h79.288c10.595,0,19.268,8.681,19.268,19.268     v10.6c0,10.582-8.686,19.268-19.268,19.268h-79.288c-10.587,0-19.268-8.672-19.268-19.268v-10.6     C117.437,427.692,126.105,419.024,136.705,419.024z"/>
			<path fill-rule="evenodd" clip-rule="evenodd" fill="#E5E5E5" d="M173.894,419.024h42.099c10.595,0,19.268,8.681,19.268,19.268     v10.6c0,10.582-8.681,19.268-19.268,19.268h-42.099V419.024z"/>
			<path fill-rule="evenodd" clip-rule="evenodd" fill="#D3D3D3" d="M118.622,258.989c-6.847,1.009-13.447,5.722-12.582,12.583     l16.979,134.807c0.865,6.861,5.667,12.583,12.582,12.583h19.863l-17.66-138.704C135.129,263.85,129.425,257.404,118.622,258.989z     "/>
		</g>
		<path fill-rule="evenodd" clip-rule="evenodd" fill="#9B3B0B" d="M185.026,214.151c-10.614,6.05-23.669,11.47-18.844,42.798    c0.933,6.059,1.464,14.195-1.045,19.362c-8.753,18.016-9.285,43.338,6.591,61.133c-23.268-55.411,22.421-49.163,14.19-73.841    C176.953,236.721,178.268,231.049,185.026,214.151z"/>
		<path fill-rule="evenodd" clip-rule="evenodd" fill="#9B3B0B" d="M219.718,225.27c28.552,16.366-43.829,18.322-27.12,53.731    c-7.177-11.794-14.673-37.927-9.803-44.306C189.215,226.283,206.096,227.54,219.718,225.27z"/>
		<g>
			<path fill-rule="evenodd" clip-rule="evenodd" fill="#D3D3D3" d="M347.804,323.857l16.029-66.629     c0.685-2.847,3.536-4.644,6.388-3.982l0,0c2.851,0.658,4.662,3.536,3.983,6.384l-16.029,66.629     c-0.685,2.847-3.536,4.644-6.388,3.982l0,0C348.934,329.578,347.119,326.699,347.804,323.857z"/>
			<g>
				<g>
					<path fill-rule="evenodd" clip-rule="evenodd" fill="#D3D3D3" d="M270.638,319.901h81.824c2.928,0,5.325,2.397,5.325,5.321l0,0       c0,2.928-2.397,5.325-5.325,5.325h-81.824c-2.924,0-5.32-2.397-5.32-5.325l0,0       C265.318,322.298,267.714,319.901,270.638,319.901z"/>
					<path fill-rule="evenodd" clip-rule="evenodd" fill="#C1C1C1" d="M357.787,325.222c0,2.928-2.397,5.325-5.325,5.325h-81.824       c-2.924,0-5.32-2.397-5.32-5.325H357.787z"/>
				</g>
				<path fill-rule="evenodd" clip-rule="evenodd" fill="#C1C1C1" d="M370.221,253.245c2.851,0.658,4.662,3.541,3.983,6.384      l-16.029,66.629c-0.685,2.847-3.536,4.644-6.388,3.982L370.221,253.245z"/>
			</g>
		</g>
		<g>
			<polygon fill-rule="evenodd" clip-rule="evenodd" fill="#FFDBA7" points="282.175,329.271 298.695,319.694 294.523,312.409      285.901,313.369 284.315,311.589 273.837,314.216 266.863,321.234 269.399,329.33    "/>
			<path fill-rule="evenodd" clip-rule="evenodd" fill="#B75361" d="M213.763,327.325l55.686-9.447l3.234,12.051l-54.474,14.182     C199.797,349.778,195.783,334.114,213.763,327.325z"/>
		</g>
	</g>
	<g>
		<g>
			<g>
				<rect x="767.357" y="429.701" fill-rule="evenodd" clip-rule="evenodd" fill="#D3D3D3" width="9.586" height="82.689"/>
				<rect x="688.606" y="429.701" fill-rule="evenodd" clip-rule="evenodd" fill="#C1C1C1" width="9.586" height="82.689"/>
			</g>
			<path fill-rule="evenodd" clip-rule="evenodd" fill="#D3D3D3" d="M772.416,389.778h-79.288c-10.595,0-19.268,8.686-19.268,19.268     v10.6c0,10.587,8.686,19.268,19.268,19.268h79.288c10.587,0,19.273-8.668,19.273-19.268v-10.6     C791.688,398.45,783.016,389.778,772.416,389.778z"/>
			<path fill-rule="evenodd" clip-rule="evenodd" fill="#E5E5E5" d="M735.232,389.778h-42.104c-10.595,0-19.268,8.686-19.268,19.268     v10.6c0,10.587,8.686,19.268,19.268,19.268h42.104V389.778z"/>
			<path fill-rule="evenodd" clip-rule="evenodd" fill="#D3D3D3" d="M790.503,229.748c6.843,1.004,13.448,5.717,12.583,12.582     l-16.984,134.802c-0.865,6.861-5.667,12.582-12.582,12.582h-19.863l17.66-138.703C773.992,234.604,779.7,228.157,790.503,229.748     z"/>
		</g>
		<g>
			<g>
				<path fill-rule="evenodd" clip-rule="evenodd" fill="#FFDBA7" d="M624.301,398.572l-10.145-7.051      c-2.613-10.253,3.807-11.857,23.516-18.943c23.557-8.465,37.923-10.659,54.308-13.556c1.041-2.18,0.365-4.586,0.955-6.532      c8.726,3.388,20.894-1.951,32.233,1.577c0.744,20.443,18.489,41.22-39.639,38.941c-12.357-0.487-20.138,2.712-36.261,1.987      C640.028,394.58,629.748,396.968,624.301,398.572z"/>
				<path fill-rule="evenodd" clip-rule="evenodd" fill="#D1A059" d="M755.824,277.392c-35.684-27.589-10.853-26.332-20.75-75.129      c-2.095-10.339,12.533-17.727,23.516-10.141c15.276,10.551,11.623,29.044,6.563,36.189      C754.864,242.834,737.592,254.75,755.824,277.392z"/>
				<path fill-rule="evenodd" clip-rule="evenodd" fill="#FFDBA7" d="M703.751,205.195c-2.865,6.122-0.865,8.704-2.226,11.92      c-1.288,3.041-3.919,5.527-6.131,6.902c-0.842,2.68,2.235,3.626,2.514,5.163c0.108,0.586,0.292,1.874-0.266,3.14l-0.991,0.577      c-0.122,2.699,1.334,2.689,4.266,2.946c-1.717,0.527-4.541,0.851-3.248,3.194c0.676,1.019,1.185,1.406,1.167,1.847      c-0.031,0.824-0.694,3.388,0.397,5.487c0.851,1.64,3.307,1.613,6.446,1.049c6.848-1.221,7.361,16.849,4.811,22.552l23.201-0.951      c-3.189-6.023-5.892-24.574-4.856-25.782c0.32-0.379,29.656-20.502,16.731-40.491c-4.69-7.257-19.705-9.505-29.498-7.388      C710.252,196.622,706.013,200.362,703.751,205.195z"/>
				<path fill-rule="evenodd" clip-rule="evenodd" fill="#F0C17D" d="M707.256,246.929c11.118-2.667,18.984-2.743,22.904-11.911      c-0.244,3.577,4.05,4.19,3.883,6.302c-0.113,1.347-5.289,0.59-5.284,1.847c0.013,2.833,0.513,9.866,1.671,15.511l-10.988-5.005      l-5.928-1.414C711.085,248.474,711.247,249.029,707.256,246.929z"/>
				<path fill-rule="evenodd" clip-rule="evenodd" fill="#D1A059" d="M707.643,199.722c2.996-6.105,31.166-13.335,40.883,5.149      c10.551,20.074-1.581,37.499-19.93,37.986l0.581-7.92c1.194-11.853,2.338-17.133-3.626-9.798      C721.424,216.449,715.176,205.565,707.643,199.722z"/>
				<path fill-rule="evenodd" clip-rule="evenodd" fill="#D1A059" d="M707.945,199.294c-8.969,4.32-4.973,5.699,1.073,12.123      c4.942,5.253,12.51,14.713,16.695,14.042c1.734-0.28,5.712-11.844,7.46-2.626c1.86,9.807-2.406,17.961-9.001,24.741      c10.217-8.496,12.826-19.52,10.384-26.854C731.339,211.056,719.64,205.619,707.945,199.294z"/>
				<path fill-rule="evenodd" clip-rule="evenodd" fill="#FFDBA7" d="M729.389,217.606c4.374-4.68,6.789,2.753,6.564,5.825      c-0.31,4.154-4.419,5.555-5.347,7.294c-1.469,2.748,0.631,5.055-1.595,6.352c-0.563,0.329-1.541-0.063-2.014-1.085      C724.645,230.892,725.235,222.053,729.389,217.606z"/>
				<path fill-rule="evenodd" clip-rule="evenodd" fill="#E5BB88" d="M689.66,306.895c-9.632-4.73-8.663-14.348-1.419-20.66      c4.46-3.893,11.105-9.618,16.479-14.736l27.895-6.271c7.757,7.122,5.059,28.683-0.374,38.535      c-10.181,18.452-19.015,15.875-10.321,38.797c-0.153,0.072,14.529,19.236,14.078,28.273c-0.135,7.518-4.05,20.083-16.065,21.362      c-9.204,0.982-24.953,0.802-34.328,1.212c-0.64-6.073-10.952-28.575-11.163-30.764c4.861-3.149,12.961-0.906,17.885-3.951      C688.574,348.282,690.222,313.603,689.66,306.895z"/>
				<g>
					<path fill-rule="evenodd" clip-rule="evenodd" fill="#FFDBA7" d="M613.449,391.017c-0.176-9.032,4.023-15.894,15.371-3.181       c21.962,25.273,3.699,61.52,8.938,85.982c1.446,5.964,9.136,6.604,5.573,13.763c-1.455,2.928,0.356,1.991-8.933,4.487       c-4.005,5.329-4.789,12.645-7.897,14.375c-5.911,3.28-18.619,1.924-23.984,1.915c0.04-5.258,9.186-3.996,15.348-12.853       c3.532-5.082,5.109-13.524,6.177-21.367C626.923,452.933,616.224,406.306,613.449,391.017z"/>
					<path fill-rule="evenodd" clip-rule="evenodd" fill="#D1A059" d="M639.862,477.62c3.108,2.023,5.045,4.302,4.897,7.104       c-0.041,0.762-0.131,1.874-0.513,2.865c-1.496,3.843-2.609,8.069-3.041,12.186l-0.28,8.082l-1.635-0.059l0.18-8.185       c-0.185-1.883,0.658-8.537,0.243-8.442c-10.082,2.293-7.406,12.046-13.213,15.268c-5.911,3.279-18.619,1.928-23.984,1.919       c0.022-2.888,2.797-3.811,6.316-5.523c12.952,0.108,16.948-1.717,20.894-9.172C633.041,487.4,641.132,483.049,639.862,477.62z"/>
				</g>
			</g>
			<g>
				<g>
					<polygon fill-rule="evenodd" clip-rule="evenodd" fill="#FFDBA7" points="625.319,295.349 613.679,285.447 617.314,278.883        623.684,280.28 624.95,279.32 632.595,282.226 637.33,288.731 633.69,295.295      "/>
					<path fill-rule="evenodd" clip-rule="evenodd" fill="#D6A36B" d="M697.381,276.117l-26.404,28.476l-34.368-17.353l-3.861,8.73       l37.549,24.075c5.658,2.289,4.136,2.649,8.181-1.924l11.56-10.407c-0.009-0.261-0.027-0.5-0.045-0.712       c-9.631-4.73-8.663-14.348-1.419-20.66c4.465-3.887,11.105-9.614,16.484-14.736l5.595-1.257       C704.99,269.562,699.638,273.684,697.381,276.117z"/>
					<g>
						<path fill-rule="evenodd" clip-rule="evenodd" fill="#D3D3D3" d="M578.648,260.544c19.678,7.816,29.737,9.622,42.694,2.734        c4.789,12.425,10.213,29.301,14.646,45.437c2.217,8.064,0.671,6.766-7.122,6.312c-10.182-0.59-26.129-1.049-30.868-2.095        C589.672,293.664,587.212,282.528,578.648,260.544z"/>
						<path fill-rule="evenodd" clip-rule="evenodd" fill="#E5E5E5" d="M578.648,260.539c9.587,3.811,16.889,6.19,23.354,6.838        l17.61,47.023c-9.05-0.433-18.034-0.68-21.615-1.464C589.672,293.664,587.212,282.528,578.648,260.539z"/>
					</g>
				</g>
				<g>
					<polygon fill-rule="evenodd" clip-rule="evenodd" fill="#FFDBA7" points="631.654,305.931 615.823,296.588 619.895,289.609        628.189,290.596 629.73,288.898 639.794,291.506 646.448,298.313 643.948,306.089      "/>
					<path fill-rule="evenodd" clip-rule="evenodd" fill="#FCD588" d="M715.874,282.293l-18.371,26.692       c-5.942,9.353,4.577,17.173,10.65,9.159l25.034-27.571c4.487-7.231,5.87-14.605-0.117-17.015       C724.24,270.008,717.87,278.32,715.874,282.293z"/>
					<path fill-rule="evenodd" clip-rule="evenodd" fill="#FCD588" d="M697.512,304.58l-53.523-9.514l-3.208,11.569l52.321,14.069       C710.783,326.298,714.766,311.256,697.512,304.58z"/>
				</g>
			</g>
		</g>
		<g>
			<g>
				<rect x="513.168" y="336.795" fill-rule="evenodd" clip-rule="evenodd" fill="#E5E5E5" width="151.831" height="125.828"/>
				<rect x="589.086" y="336.795" fill-rule="evenodd" clip-rule="evenodd" fill="#D3D3D3" width="75.914" height="125.828"/>
			</g>
			<g>
				<g>
					<rect x="655.976" y="347.913" fill-rule="evenodd" clip-rule="evenodd" fill="#E5E5E5" width="10.798" height="189.106"/>
					<rect x="661.404" y="347.913" fill-rule="evenodd" clip-rule="evenodd" fill="#C1C1C1" width="5.37" height="189.106"/>
				</g>
				<g>
					<rect x="511.398" y="347.913" fill-rule="evenodd" clip-rule="evenodd" fill="#E5E5E5" width="10.794" height="189.106"/>
					<rect x="516.822" y="347.913" fill-rule="evenodd" clip-rule="evenodd" fill="#C1C1C1" width="5.37" height="189.106"/>
				</g>
			</g>
			<g>
				<rect x="474.786" y="330.542" fill-rule="evenodd" clip-rule="evenodd" fill="#D3D3D3" width="228.601" height="33.346"/>
				<rect x="589.086" y="330.542" fill-rule="evenodd" clip-rule="evenodd" fill="#C1C1C1" width="114.301" height="33.346"/>
			</g>
		</g>
		<g>
			<g>
				<rect x="795.833" y="458.947" fill-rule="evenodd" clip-rule="evenodd" fill="#D3D3D3" width="9.586" height="82.689"/>
				<rect x="717.081" y="458.947" fill-rule="evenodd" clip-rule="evenodd" fill="#C1C1C1" width="9.587" height="82.689"/>
			</g>
			<path fill-rule="evenodd" clip-rule="evenodd" fill="#D3D3D3" d="M800.892,419.024h-79.288c-10.6,0-19.268,8.681-19.268,19.268     v10.6c0,10.582,8.686,19.268,19.268,19.268h79.288c10.587,0,19.268-8.672,19.268-19.268v-10.6     C820.159,427.692,811.492,419.024,800.892,419.024z"/>
			<path fill-rule="evenodd" clip-rule="evenodd" fill="#E5E5E5" d="M763.703,419.024h-42.099c-10.6,0-19.268,8.681-19.268,19.268     v10.6c0,10.582,8.681,19.268,19.268,19.268h42.099V419.024z"/>
			<path fill-rule="evenodd" clip-rule="evenodd" fill="#D3D3D3" d="M818.975,258.989c6.848,1.009,13.447,5.722,12.582,12.583     l-16.984,134.807c-0.865,6.861-5.663,12.583-12.578,12.583h-19.862l17.659-138.704     C802.469,263.85,808.172,257.404,818.975,258.989z"/>
		</g>
		<g>
			<path fill-rule="evenodd" clip-rule="evenodd" fill="#139EAB" d="M740.751,404.721l41.157,5.996     c5.951-22.273,4.465-31.828-1.103-47.582l-1.681-12.339l-46.541,0.906l3.667,38.112L740.751,404.721z"/>
			<path fill-rule="evenodd" clip-rule="evenodd" fill="#3F5375" d="M785.53,381.317l-45.343-1.23l-65.655,1.901     c-15.056,4.708-6.37,28.206,13.038,31.364l50.429,6.825C775.533,420.574,791.441,430.305,785.53,381.317z"/>
			<path fill-rule="evenodd" clip-rule="evenodd" fill="#FFDBA7" d="M779.43,226.314c-1.658,9.947-1.18,16.443,1.212,22.912     c5.807,15.727,9.781,23.282,10.803,31.616c0.459,3.739-5.721,19.709-8.519,32.139h-48.343l6.244-36.13     c2.721-3.509,13.082-16.808,13.154-17.137c0.721-3.23-0.671-2.915-1-8.506c-0.185-3.144,1.109-4.644-0.022-6.442     c-1.645-2.626-7.51-1.901-11.375-2.676l28.742-27.922L779.43,226.314z"/>
			<path fill-rule="evenodd" clip-rule="evenodd" fill="#7CACE4" d="M780.642,249.227c5.812,15.727,10.546,22.669,11.569,31.003     c0.46,3.739-6.487,20.322-9.284,32.751H731.74l-3.874-23.66c3.888-8.582,25.395-29.327,26.115-29.606L780.642,249.227z"/>
			<path fill-rule="evenodd" clip-rule="evenodd" fill="#F0C17D" d="M753.662,255.61c-0.261-0.942-0.549-2.225-0.68-4.401     c-0.185-3.144,1.109-4.64-0.018-6.442c-1.649-2.626-7.514-1.901-11.38-2.676l28.737-27.927l2.37,3.158     C770.866,231.144,762.284,245.839,753.662,255.61z"/>
			<path fill-rule="evenodd" clip-rule="evenodd" fill="#FFDBA7" d="M738.597,225.472c0.09,1.383-0.158,2.14-1.492,2.928     c-0.266,0.932,0.221,2.072,1.194,2.523c-0.95,0.585-1.523,1.748-0.973,3.09c0.847,0.297,1.194,0.694,1.234,1.14     c0.139,1.383-2.627,3.78-0.973,6.334c1.996,3.072,15.339-1.401,21.547-3.455c5.145-1.699,4.01-5.23,4.19-10.497     c2.699,0.734,4.929,0.203,5.641-4.068c4.275-4.568,6.05-8.51,9.109-13.938c0,0-5.856-24.075-6.397-24.291     c-0.541-0.216-18.655-0.324-18.655-0.324c-2.608,3.136-6.537,5.825-9.325,9.519c-3.861,5.113-3.788,10.276-4.879,12.821     c-0.924,2.162-0.739,3.279-0.396,4.465c0.153,0.541,0.469,1.225,0.392,1.779c-0.577,4.375-5.339,7.623-5.271,8.866     C733.601,223.387,735.398,225.387,738.597,225.472z"/>
			<path fill-rule="evenodd" clip-rule="evenodd" fill="#6B4C40" d="M757.779,210.119c-0.072,3.077-1.23,4.514-0.086,9.091     l2.383-0.649c2.289-2.289,7.803-7.559,11.186-5.987c2.617,1.216,0.969,6.077-1.383,9.361c-1.261,1.762-1.486,3.712-1.121,5.01     c0.815,2.869,3.523,1.761,5.933,4.698c1.964,2.392,2.843,6.014,3.717,7.627c2.347-6.874,3.154-9.267,6.208-13.362     c5.059-6.78,7.987-22.849,1.167-28.39c-0.671-1.558-1.401-2.973-2.194-4.252c-7.685-12.412-27.958-15.083-37.706-4.496     c-2.82,3.068-5.091,7.176-7.506,12.19C743.553,203.028,758.225,191.843,757.779,210.119z"/>
			<path fill-rule="evenodd" clip-rule="evenodd" fill="#88BDE9" d="M779.006,241.551c1.113,4.428,1.604,7.109,3.361,11.235     c-9.704,2.302-25.701,10.456-32.121,10.456c1.887-2.243,2.951-4.131,3.311-7.609     C762.554,251.862,770.506,246.335,779.006,241.551z"/>
			<path fill-rule="evenodd" clip-rule="evenodd" fill="#7E8591" d="M782.106,252.894c4.838,12.996,12.537,16.263,11.902,32.467     c-0.545,13.731-6.068,31.873-8.483,43.248c-5.438,25.584-2.631,40.622,1.91,66.507l-53.29-2.901     c-0.874-11.934-8.627-98.321-7.303-101.218C741.327,271.184,760.257,267.945,782.106,252.894z"/>
			<path fill-rule="evenodd" clip-rule="evenodd" fill="#8996A3" d="M782.106,252.894c1.135,2.644,2.307,4.937,3.46,6.987     c-4.338,4.64-17.596,8.65-24.304,12.686l-3.361-4.879l-2.387,8.672c-7.294,3.063-21.912,8.064-29.616,16.713     c0.244-0.896,0.554-1.757,0.946-2.613C741.976,269.702,763.028,259.291,782.106,252.894z"/>
			<path fill-rule="evenodd" clip-rule="evenodd" fill="#8996A3" d="M789.868,291.542c-2.054,11.56-7.767,33.891-10.226,45.919     l-1.396,7.803c-4.212,12.835-23.034,8.523-21.344-6.33c0.613-9.794,2.027-29.602,2.811-33.895     c-0.563-20.205,5.118-35.36,18.817-33.788C785.981,272.112,792.175,278.541,789.868,291.542z"/>
			<polygon fill-rule="evenodd" clip-rule="evenodd" fill="#935F48" points="669.473,508.376 694.156,507.736 694.156,533.748      644.335,533.748 644.335,523.688    "/>
			<path fill-rule="evenodd" clip-rule="evenodd" fill="#3F5375" d="M662.283,413.488l3.311,97.514l32.454,6.248l-0.234-77.283     l-3.028-29.265C702.665,381.615,655.944,363.906,662.283,413.488z"/>
		</g>
		<g>
			<polygon fill-rule="evenodd" clip-rule="evenodd" fill="#F0C17D" points="670.365,320.248 652.971,302.413 659.715,290.74      669.774,293.308 671.946,291.61 683.853,296.898 690.592,308.576 683.848,320.252    "/>
			<polygon fill-rule="evenodd" clip-rule="evenodd" fill="#7CACE4" points="691.804,305.647 687.88,303.003 681.988,320.676      686.767,322.982    "/>
			<path fill-rule="evenodd" clip-rule="evenodd" fill="#758089" d="M729.677,333.862l-39.617-30.819l-5.541,19.817l42.068,41.189     c1.924,1.712,3.905,2.915,5.852,3.667C731.551,357.126,730.551,345.07,729.677,333.862z"/>
			<path fill-rule="evenodd" clip-rule="evenodd" fill="#FFDBA7" d="M691.916,347.787l-14.294-2.253     c-1.626-0.243-2.626-1.725-2.401-3.388l2.275-16.051c0.225-1.662,3.897-2.401,5.487-1.996l12.055,1.888     c1.59,0.405,2.626,1.824,3.469,3.235l12.33,3.275c-1.482,3.852-3.041,10.01-4.523,13.862l-10.51-0.622     C694.561,347.386,692.579,347.89,691.916,347.787z"/>
			<path fill-rule="evenodd" clip-rule="evenodd" fill="#FFDBA7" d="M677.154,340.12l8.627,0.649c2.198,0.167,4,2.559,3.721,4.455     l0,0c-0.275,1.901-6.46,0.644-8.663,0.491l-4.501-0.315C671.955,345.093,671.157,339.664,677.154,340.12z"/>
			<path fill-rule="evenodd" clip-rule="evenodd" fill="#FFDBA7" d="M676.645,334.528l8.249,0.64     c2.099,0.162,3.811,2.64,3.541,4.613l0,0c-0.275,1.978-6.181,0.698-8.289,0.545l-4.302-0.306     C671.657,339.718,670.914,334.083,676.645,334.528z"/>
			<path fill-rule="evenodd" clip-rule="evenodd" fill="#FFDBA7" d="M676.784,329.014l7.118,0.581     c1.811,0.149,2.974,2.577,2.469,4.523l0,0c-0.505,1.95-5.491,0.725-7.312,0.59l-3.716-0.279     C671.725,334.159,671.838,328.609,676.784,329.014z"/>
			<path fill-rule="evenodd" clip-rule="evenodd" fill="#FFDBA7" d="M676.676,323.789l5.947,0.248     c1.518,0.068,2.527,2.262,2.144,4.077l0,0c-0.387,1.82-4.573,0.888-6.091,0.834l-3.108-0.108     C672.545,328.735,672.54,323.613,676.676,323.789z"/>
			<polygon fill-rule="evenodd" clip-rule="evenodd" fill="#88BDE9" points="712.581,351.814 716.595,333.137 699.034,328.506      695.02,347.178    "/>
			<path fill-rule="evenodd" clip-rule="evenodd" fill="#8996A3" d="M759.694,360.455c-6.253-0.401-6.316-0.41-10.92-1.473     l-49.51-9.393l2.023-21.471l62.065,8.69C781.354,340.25,778.953,361.477,759.694,360.455z"/>
		</g>
	</g>
</g>
</svg>
